<svg width="321" height="77" viewBox="0 0 321 77" fill="none" xmlns="http://www.w3.org/2000/svg">
<path d="M38 8.43646C31.9565 8.44597 26.0515 10.247 21.0313 13.6118C16.0112 16.9766 12.1013 21.7543 9.79582 27.3408C7.49038 32.9273 6.89294 39.0719 8.07896 44.9979C9.26498 50.9239 12.1812 56.3652 16.4591 60.6342C20.737 64.9031 26.1845 67.808 32.1129 68.9816C38.0414 70.1552 44.1848 69.5448 49.7664 67.2277C55.3481 64.9105 60.1175 60.9906 63.4718 55.9634C66.8261 50.9362 68.6147 45.0274 68.6116 38.9839C68.6074 34.9681 67.8123 30.9925 66.2716 27.2841C64.731 23.5756 62.4749 20.2069 59.6324 17.3703C56.7899 14.5337 53.4164 12.2848 49.7047 10.7519C45.993 9.21904 42.0158 8.43225 38 8.43646ZM38 76.9839C30.4843 76.9839 23.1374 74.7552 16.8884 70.5798C10.6393 66.4043 5.76872 60.4695 2.89259 53.5259C0.0164561 46.5823 -0.736059 38.9418 0.73018 31.5705C2.19642 24.1992 5.81555 17.4282 11.1299 12.1138C16.4443 6.79945 23.2153 3.1803 30.5866 1.71406C37.9579 0.247825 45.5984 1.00035 52.542 3.87648C59.4856 6.75261 65.4204 11.6232 69.5959 17.8722C73.7714 24.1213 76 31.4682 76 38.9839C75.9873 49.0582 71.9797 58.7163 64.856 65.8399C57.7324 72.9635 48.0743 76.9712 38 76.9839Z" fill="white"/>
<path d="M86.1294 43.0869V59.2421H83.6934V43.0869H86.1294Z" fill="#E0C18D"/>
<path d="M92.0107 59.242V41.981L103.807 54.3217V43.1028H106.243V60.2517L94.4629 47.943V59.2581L92.0107 59.242Z" fill="#E0C18D"/>
<path d="M121.26 45.4909L119.273 46.6608C119.03 46.1627 118.666 45.733 118.215 45.4107C117.808 45.1721 117.341 45.0553 116.869 45.0742C116.256 45.0537 115.657 45.259 115.186 45.6511C114.971 45.8203 114.798 46.0373 114.681 46.2849C114.564 46.5324 114.507 46.8038 114.513 47.0775C114.513 47.8629 115.106 48.4879 116.276 48.9687L117.879 49.6419C118.991 50.0292 119.985 50.6972 120.764 51.5811C121.386 52.3808 121.709 53.373 121.677 54.3858C121.699 55.0702 121.577 55.7515 121.321 56.3862C121.064 57.0209 120.678 57.5951 120.187 58.0721C119.698 58.5551 119.116 58.9347 118.478 59.188C117.839 59.4414 117.155 59.5633 116.468 59.5465C115.192 59.5909 113.947 59.1434 112.99 58.2964C112.04 57.3567 111.445 56.1161 111.308 54.7865L113.776 54.2416C113.804 54.9382 114.008 55.6163 114.369 56.2129C114.619 56.5557 114.951 56.8305 115.334 57.0124C115.718 57.1943 116.141 57.2776 116.564 57.2547C116.914 57.2639 117.262 57.2019 117.587 57.0724C117.913 56.9429 118.208 56.7486 118.456 56.5014C118.707 56.2464 118.903 55.9429 119.032 55.6095C119.162 55.276 119.222 54.9196 119.209 54.5621C119.218 54.2683 119.175 53.9751 119.081 53.6967C118.999 53.4309 118.863 53.1852 118.68 52.9755C118.469 52.7351 118.227 52.5248 117.959 52.3504C117.628 52.1397 117.279 51.9574 116.917 51.8055L115.314 51.1484C113.103 50.2188 111.997 48.8565 111.997 47.0455C111.987 46.466 112.107 45.8916 112.348 45.3647C112.59 44.8377 112.946 44.3715 113.391 44.0003C114.35 43.17 115.585 42.7297 116.853 42.7663C117.771 42.7522 118.674 43.0012 119.455 43.4841C120.236 43.9669 120.863 44.6633 121.26 45.4909Z" fill="#E0C18D"/>
<path d="M129.05 43.0869V52.8153C128.965 53.8768 129.205 54.939 129.739 55.8604C130.079 56.2937 130.514 56.644 131.009 56.8849C131.505 57.1258 132.049 57.251 132.6 57.251C133.151 57.251 133.694 57.1258 134.19 56.8849C134.686 56.644 135.12 56.2937 135.46 55.8604C135.986 54.9361 136.22 53.8749 136.134 52.8153V43.0869H138.586V53.4884C138.613 54.2624 138.486 55.0341 138.211 55.7581C137.935 56.482 137.518 57.1435 136.983 57.7035C136.158 58.5977 135.08 59.2188 133.893 59.484C132.705 59.7492 131.465 59.6458 130.338 59.1877C129.211 58.7296 128.251 57.9385 127.585 56.9201C126.92 55.9018 126.581 54.7046 126.614 53.4884V43.0869H129.05Z" fill="#E0C18D"/>
<path d="M149.932 52.3505L154.933 59.2421H151.952L147.32 52.623H146.887V59.2421H144.451V43.0869H147.304C148.94 42.9449 150.575 43.3692 151.936 44.2889C152.455 44.7183 152.869 45.2606 153.147 45.8744C153.425 46.4883 153.559 47.1575 153.538 47.8309C153.557 48.8964 153.212 49.9363 152.561 50.7799C151.902 51.6029 150.969 52.1606 149.932 52.3505ZM146.887 50.5074H147.657C149.98 50.5074 151.134 49.6259 151.134 47.8469C151.134 46.0679 150.013 45.3788 147.753 45.3788H146.887V50.5074Z" fill="#E0C18D"/>
<path d="M168.844 55.3154H161.937L160.126 59.242H157.497L165.511 42.061L173.236 59.242H170.543L168.844 55.3154ZM167.851 53.0716L165.462 47.5743L162.946 53.0716H167.851Z" fill="#E0C18D"/>
<path d="M177.227 59.242V41.981L189.022 54.3217V43.1028H191.459V60.2517L179.679 47.943V59.2581L177.227 59.242Z" fill="#E0C18D"/>
<path d="M209.425 43.9522V46.837C208.223 45.747 206.671 45.1218 205.049 45.074C204.264 45.058 203.483 45.2082 202.76 45.5148C202.036 45.8213 201.385 46.2774 200.85 46.853C200.287 47.4279 199.845 48.1099 199.551 48.8588C199.256 49.6076 199.115 50.4079 199.135 51.2124C199.115 52.0072 199.257 52.7978 199.552 53.5361C199.847 54.2745 200.288 54.9453 200.85 55.5076C201.393 56.0763 202.048 56.5254 202.773 56.8262C203.499 57.1271 204.28 57.273 205.065 57.2546C205.813 57.2728 206.557 57.1307 207.245 56.8379C207.61 56.6853 207.959 56.4974 208.287 56.2769C208.683 56.0115 209.063 55.7225 209.425 55.4115V58.3604C208.089 59.1311 206.575 59.5398 205.033 59.5464C203.933 59.563 202.84 59.3573 201.821 58.9414C200.802 58.5255 199.878 57.9082 199.103 57.1263C198.315 56.3625 197.692 55.4449 197.273 54.4303C196.854 53.4158 196.648 52.3259 196.667 51.2284C196.656 49.2068 197.386 47.2512 198.719 45.7311C199.503 44.7747 200.496 44.0102 201.621 43.4963C202.746 42.9824 203.973 42.7327 205.21 42.7662C206.695 42.7779 208.151 43.1875 209.425 43.9522Z" fill="#E0C18D"/>
<path d="M223.416 45.3788H217.005V49.2573H223.288V51.5492H217.005V56.9503H223.416V59.2421H214.457V43.0869H223.368L223.416 45.3788Z" fill="#E0C18D"/>
<path d="M245.549 50.8279H252.216V51.3568C252.227 52.4394 252.087 53.5182 251.8 54.5622C251.497 55.4588 251.011 56.2829 250.373 56.9822C249.666 57.7984 248.785 58.4463 247.795 58.8789C246.805 59.3114 245.731 59.5176 244.652 59.4824C243.565 59.4956 242.488 59.2846 241.487 58.8627C240.486 58.4408 239.583 57.817 238.834 57.0303C237.691 55.8383 236.924 54.337 236.627 52.7128C236.33 51.0885 236.516 49.4128 237.163 47.8936C237.81 46.3744 238.889 45.0786 240.266 44.1671C241.643 43.2556 243.257 42.7685 244.908 42.7663C246.131 42.7582 247.341 43.0209 248.45 43.5356C249.627 44.1707 250.671 45.0248 251.527 46.0518L249.796 47.6545C249.255 46.8559 248.527 46.2017 247.675 45.7492C246.823 45.2966 245.873 45.0594 244.908 45.0582C244.109 45.0414 243.316 45.1893 242.577 45.4926C241.838 45.7959 241.169 46.2481 240.613 46.8211C240.04 47.3905 239.59 48.0709 239.289 48.8205C238.989 49.5701 238.845 50.3732 238.866 51.1805C238.865 52.756 239.476 54.2702 240.571 55.4036C241.665 56.5369 243.157 57.2007 244.732 57.2547C245.914 57.2564 247.055 56.8228 247.937 56.0366C248.386 55.6791 248.759 55.2354 249.034 54.7318C249.309 54.2282 249.481 53.6746 249.54 53.1037H245.549V50.8279Z" fill="#E0C18D"/>
<path d="M262.763 52.3506L267.763 59.2422H264.782L260.166 52.623H259.733V59.2422H257.281V43.087H260.15C261.781 42.9447 263.411 43.3693 264.766 44.289C265.288 44.7159 265.704 45.2578 265.982 45.8722C266.26 46.4866 266.392 47.157 266.369 47.831C266.395 48.8976 266.049 49.9401 265.391 50.7799C264.733 51.603 263.799 52.1607 262.763 52.3506ZM259.733 50.5075H260.503C262.811 50.5075 263.965 49.626 263.965 47.847C263.965 46.068 262.843 45.3788 260.599 45.3788H259.733V50.5075Z" fill="#E0C18D"/>
<path d="M271.017 51.0845C271.004 49.9891 271.219 48.903 271.65 47.8957C272.08 46.8884 272.716 45.982 273.517 45.2347C274.3 44.4437 275.234 43.8188 276.264 43.3975C277.294 42.9761 278.399 42.767 279.511 42.7825C281.736 42.7951 283.867 43.6835 285.441 45.2552C287.016 46.827 287.909 48.9558 287.925 51.1807C287.939 52.2856 287.724 53.3813 287.293 54.399C286.863 55.4168 286.227 56.3345 285.425 57.0947C283.881 58.6185 281.814 59.4953 279.645 59.5459C277.477 59.5966 275.371 58.8172 273.758 57.3671C272.859 56.5922 272.146 55.6252 271.672 54.5378C271.198 53.4503 270.974 52.2702 271.017 51.0845ZM273.485 51.0845C273.451 52.2837 273.778 53.4654 274.424 54.476C275.071 55.4866 276.006 56.2795 277.109 56.7514C278.212 57.2233 279.431 57.3525 280.608 57.1222C281.786 56.8919 282.867 56.3127 283.71 55.4599C284.828 54.2933 285.452 52.7402 285.452 51.1246C285.452 49.509 284.828 47.9559 283.71 46.7893C283.163 46.2239 282.504 45.7781 281.776 45.4802C281.048 45.1823 280.266 45.0386 279.479 45.0584C278.687 45.0401 277.899 45.1859 277.165 45.4865C276.431 45.7871 275.768 46.2361 275.216 46.8053C274.65 47.3688 274.204 48.0416 273.907 48.7828C273.609 49.524 273.466 50.3181 273.485 51.1166V51.0845Z" fill="#E0C18D"/>
<path d="M295.425 43.0869V52.8153C295.345 53.8745 295.579 54.934 296.099 55.8604C296.421 56.3118 296.85 56.6756 297.348 56.9191C297.846 57.1626 298.397 57.2779 298.951 57.2548C299.51 57.2804 300.067 57.1664 300.57 56.9229C301.074 56.6795 301.509 56.3143 301.836 55.8604C302.362 54.9361 302.596 53.8749 302.509 52.8153V43.0869H304.946V53.4884C304.97 54.262 304.84 55.0327 304.565 55.7562C304.29 56.4796 303.875 57.1414 303.343 57.7035C302.772 58.2852 302.087 58.7433 301.332 59.0493C300.577 59.3554 299.766 59.5028 298.951 59.4825C298.163 59.4934 297.38 59.3456 296.65 59.0478C295.919 58.75 295.256 58.3084 294.7 57.7492C294.144 57.1899 293.706 56.5246 293.412 55.7926C293.118 55.0606 292.974 54.277 292.989 53.4884V43.0869H295.425Z" fill="#E0C18D"/>
<path d="M313.264 52.6873V59.2423H310.812V43.0871H313.584C314.612 43.05 315.64 43.1416 316.645 43.3596C317.344 43.5473 317.98 43.918 318.488 44.4334C318.947 44.8767 319.307 45.4107 319.547 46.0012C319.787 46.5918 319.902 47.226 319.883 47.8632C319.912 48.5247 319.793 49.1845 319.536 49.7944C319.278 50.4043 318.887 50.9491 318.392 51.3891C317.264 52.3043 315.836 52.7671 314.386 52.6873H313.264ZM313.264 50.4275H314.161C316.405 50.4275 317.527 49.562 317.527 47.8311C317.527 46.1002 316.373 45.2668 314.065 45.3309H313.264V50.4275Z" fill="#E0C18D"/>
<path d="M85.0557 23.3098C85.0557 20.0082 85.0557 19.6877 83.6133 19.4954L82.7318 19.3511C82.4433 19.1909 82.3792 18.2132 82.86 18.1812C85.3442 18.0209 87.6681 17.8927 90.9857 17.8927C93.2746 17.7112 95.5715 18.1253 97.6529 19.0947C98.3681 19.5182 98.9547 20.1281 99.35 20.8593C99.7452 21.5905 99.9342 22.4154 99.8967 23.2457C99.8802 24.1979 99.5442 25.117 98.9425 25.8553C98.3408 26.5936 97.5085 27.1082 96.5791 27.3165C96.2426 27.3165 95.922 27.5089 95.922 27.6852C95.922 27.8615 96.0823 27.8775 96.3708 27.9416C97.6227 28.1223 98.7771 28.7197 99.6477 29.6372C100.518 30.5547 101.054 31.7389 101.169 32.9986C101.284 34.2582 100.971 35.5198 100.281 36.5797C99.5904 37.6395 98.563 38.4358 97.3644 38.84C95.2538 39.4618 93.0564 39.7378 90.8575 39.6573C89.6875 39.6573 88.4534 39.5291 87.5078 39.5291C85.9051 39.5291 84.3024 39.5291 82.4433 39.6253C82.1869 39.4329 82.1869 38.5835 82.4433 38.4874L83.3889 38.295C84.8634 37.9905 84.9916 37.7661 84.9916 34.8332L85.0557 23.3098ZM89.5593 26.5152C89.5593 27.3646 89.5593 27.4287 91.2902 27.4287C91.8007 27.485 92.3174 27.4275 92.8031 27.2603C93.2888 27.0932 93.7314 26.8205 94.0991 26.462C94.4669 26.1034 94.7507 25.6678 94.9301 25.1865C95.1095 24.7053 95.18 24.1902 95.1367 23.6784C95.1978 23.1264 95.1382 22.5676 94.962 22.0408C94.7857 21.5141 94.497 21.032 94.1158 20.628C93.7346 20.2239 93.2702 19.9076 92.7546 19.701C92.239 19.4944 91.6846 19.4023 91.1299 19.4313C89.5272 19.4313 89.5272 19.7037 89.5272 21.1301L89.5593 26.5152ZM89.5593 34.0639C89.5593 36.6122 89.8798 38.1989 92.4281 38.1989C94.9764 38.1989 96.1143 36.3397 96.1143 33.6953C96.1735 33.0491 96.0897 32.3978 95.8689 31.7876C95.6482 31.1774 95.296 30.6232 94.8371 30.1644C94.3783 29.7055 93.8241 29.3533 93.2139 29.1326C92.6037 28.9118 91.9524 28.8281 91.3062 28.8872C89.5112 28.8872 89.5112 28.8872 89.5112 30.2174L89.5593 34.0639Z" fill="white"/>
<path d="M114.192 26.4669C114.192 27.3804 114.192 27.4445 115.106 27.4445H117.366C119.065 27.4445 119.449 27.2201 119.77 25.6495L119.946 24.8481C120.17 24.5757 120.988 24.5757 121.148 24.8481C121.148 25.8899 121.052 27.0598 121.052 28.2939C121.052 29.528 121.052 30.714 121.148 31.7558C120.983 31.9044 120.769 31.9867 120.547 31.9867C120.325 31.9867 120.111 31.9044 119.946 31.7558L119.77 30.9384C119.449 29.3357 119.065 29.1113 117.366 29.1113H115.09C114.208 29.1113 114.176 29.1113 114.176 30.121V34.0156C114.064 35.0757 114.247 36.1461 114.705 37.1088C115.122 37.7018 115.747 37.9582 118.135 37.9582C120.972 37.9582 122.078 37.862 123.873 34.1758C123.959 34.0995 124.06 34.0426 124.17 34.0089C124.28 33.9753 124.396 33.9658 124.51 33.981C124.624 33.9962 124.734 34.0358 124.831 34.0971C124.929 34.1583 125.012 34.2399 125.075 34.3361C124.875 36.1343 124.416 37.8942 123.712 39.5609C121.981 39.5609 118.904 39.4647 116.164 39.4647H111.884C110.282 39.4647 108.679 39.4647 106.259 39.5609C106.133 39.398 106.064 39.1979 106.064 38.9919C106.064 38.786 106.133 38.5859 106.259 38.423L107.862 38.1826C109.336 37.9582 109.464 37.7659 109.464 34.7688V22.6204C109.464 19.6554 109.272 19.415 107.862 19.1585L107.044 18.9983C106.9 18.8439 106.82 18.6406 106.82 18.4293C106.82 18.2181 106.9 18.0147 107.044 17.8604C108.647 17.8604 110.25 17.9565 111.74 17.9565H118.664C120.763 17.9565 122.622 17.9565 123.039 17.8604C123.039 18.3732 123.296 20.7292 123.472 22.9089C123.328 23.2775 122.59 23.3416 122.254 23.0531C122.014 22.1209 121.595 21.2445 121.02 20.4728C120.581 20.0976 120.071 19.8149 119.52 19.6414C118.969 19.4679 118.389 19.4073 117.814 19.4631H115.202C114.128 19.4631 114.128 19.4631 114.128 20.7292L114.192 26.4669Z" fill="white"/>
<path d="M150.189 33.9837C150.189 36.0992 150.189 38.1507 150.189 39.2405C149.936 39.4889 149.635 39.6825 149.304 39.8094C148.973 39.9362 148.619 39.9935 148.265 39.9778C148.265 39.9778 147.16 38.3751 145.621 36.4198L138.088 27.0921C136.98 25.6335 135.792 24.237 134.53 22.909C134.352 23.5938 134.298 24.3047 134.37 25.0086V31.4193C134.272 33.4191 134.433 35.4232 134.851 37.3814C135.139 38.0706 135.893 38.2949 136.742 38.4392L137.656 38.5674C137.766 38.7366 137.825 38.9343 137.825 39.1363C137.825 39.3384 137.766 39.5361 137.656 39.7053C135.893 39.7053 134.594 39.6091 133.28 39.6091C131.966 39.6091 130.876 39.6092 129.626 39.7053C129.516 39.5361 129.457 39.3384 129.457 39.1363C129.457 38.9343 129.516 38.7366 129.626 38.5674L130.187 38.4712C131.068 38.2949 131.79 38.0706 131.982 37.3814C132.384 35.4212 132.535 33.4177 132.431 31.4193V23.0533C132.526 22.1178 132.45 21.1728 132.206 20.2646C131.95 19.7196 131.485 19.319 130.347 19.1587L129.434 19.0305C129.209 18.7741 129.241 17.9887 129.562 17.8926C131.165 17.8926 132.767 17.9887 134.066 17.9887C135.364 17.9887 136.117 17.9887 136.806 17.8926C137.143 19.351 139.258 21.8352 142.191 25.3291L144.932 28.5345C146.374 30.2334 147.32 31.3713 148.137 32.1245C148.256 31.6426 148.299 31.1452 148.265 30.6501V26.1785C148.368 24.1726 148.201 22.1619 147.769 20.2005C147.48 19.5273 146.759 19.2869 145.877 19.1587L144.996 19.0305C144.886 18.8612 144.827 18.6636 144.827 18.4615C144.827 18.2595 144.886 18.0618 144.996 17.8926C146.759 17.8926 148.041 17.9887 149.371 17.9887C150.702 17.9887 151.759 17.9887 153.025 17.8926C153.136 18.0618 153.195 18.2595 153.195 18.4615C153.195 18.6636 153.136 18.8612 153.025 19.0305L152.448 19.1267C152.085 19.1288 151.729 19.2298 151.418 19.419C151.107 19.6082 150.854 19.8783 150.686 20.2005C150.253 22.1619 150.086 24.1726 150.189 26.1785V33.9837Z" fill="white"/>
<path d="M178.092 18.3091C178.121 20.0139 178.25 21.7156 178.476 23.4057C178.341 23.5968 178.136 23.7273 177.905 23.7692C177.674 23.8111 177.437 23.7612 177.242 23.63C176.945 22.2629 176.174 21.0449 175.065 20.1914C173.957 19.338 172.582 18.904 171.184 18.9662C167.562 18.9662 163.683 22.0594 163.683 28.5824C163.683 35.1054 167.434 38.5672 171.344 38.5672C172.851 38.546 174.311 38.0429 175.511 37.1315C176.711 36.2201 177.587 34.9484 178.012 33.5027C178.208 33.3792 178.444 33.3338 178.672 33.3753C178.901 33.4169 179.105 33.5423 179.246 33.727C179.149 35.4973 178.731 37.2351 178.012 38.8557C175.867 39.5661 173.634 39.9707 171.376 40.0577C168.268 40.173 165.201 39.3098 162.61 37.5895C161.259 36.6156 160.167 35.3273 159.427 33.836C158.687 32.3447 158.322 30.6955 158.363 29.0311C158.317 27.3859 158.649 25.752 159.332 24.2547C160.015 22.7573 161.032 21.4362 162.305 20.3926C164.896 18.415 168.086 17.3855 171.344 17.4757C173.613 17.5618 175.87 17.8406 178.092 18.3091Z" fill="white"/>
<path d="M193.062 29.1752C191.731 29.1752 191.699 29.1752 191.699 30.1208V34.8328C191.699 37.8619 191.892 38.1503 193.302 38.3587L194.344 38.4869C194.467 38.6509 194.534 38.8506 194.534 39.0559C194.534 39.2612 194.467 39.4609 194.344 39.6248C192.485 39.6248 190.85 39.5287 189.375 39.5287C187.901 39.5287 186.17 39.5287 184.567 39.6248C184.444 39.4609 184.377 39.2612 184.377 39.0559C184.377 38.8506 184.444 38.6509 184.567 38.4869L185.353 38.3907C186.859 38.1824 186.955 37.8619 186.955 34.8328V22.6202C186.955 19.5911 186.795 19.2545 185.353 19.0622L184.567 18.966C184.444 18.8021 184.377 18.6024 184.377 18.3971C184.377 18.1918 184.444 17.9921 184.567 17.8281C186.17 17.8281 187.869 17.9243 189.375 17.9243C190.882 17.9243 192.485 17.9243 193.911 17.8281C194.042 17.9886 194.114 18.1896 194.114 18.3971C194.114 18.6045 194.042 18.8056 193.911 18.966L193.238 19.0622C191.827 19.2545 191.635 19.5911 191.635 22.6202V26.4667C191.635 27.4123 191.635 27.4443 192.997 27.4443H199.793C201.155 27.4443 201.155 27.4443 201.155 26.4667V22.6202C201.155 19.5911 200.995 19.3186 199.553 19.0943L198.671 18.966C198.539 18.8056 198.468 18.6045 198.468 18.3971C198.468 18.1896 198.539 17.9886 198.671 17.8281C200.466 17.8281 202.053 17.9243 203.623 17.9243C205.194 17.9243 206.733 17.9243 208.223 17.8281C208.355 17.9886 208.426 18.1896 208.426 18.3971C208.426 18.6045 208.355 18.8056 208.223 18.966L207.582 19.0622C206.075 19.2866 205.883 19.5911 205.883 22.6202V34.7687C205.883 37.7978 206.075 37.974 207.582 38.2946L208.351 38.4228C208.483 38.5833 208.555 38.7843 208.555 38.9918C208.555 39.1992 208.483 39.4003 208.351 39.5607C206.749 39.5607 205.146 39.4646 203.623 39.4646C202.101 39.4646 200.418 39.4646 198.815 39.5607C198.692 39.3968 198.625 39.197 198.625 38.9918C198.625 38.7865 198.692 38.5868 198.815 38.4228L199.536 38.3267C201.027 38.1183 201.139 37.7978 201.139 34.7687V30.1208C201.139 29.2073 201.139 29.1752 199.777 29.1752H193.062Z" fill="white"/>
<path d="M214.457 19.0305C214.2 18.7741 214.2 17.9887 214.553 17.8926C215.659 17.8926 217.069 17.9887 218.672 17.9887C219.746 17.9887 220.691 17.9887 221.877 17.8926C221.877 19.912 223.031 21.8993 224.458 24.9765L226.621 29.5762C226.91 30.2334 228.08 32.2848 228.545 33.1022C228.961 32.3169 229.49 31.3072 230.372 29.3839L232.087 25.8259C233.382 23.3037 234.419 20.6563 235.18 17.9246C236.246 18.0126 237.316 18.0447 238.385 18.0208C239.459 18.0208 240.965 18.0208 242.135 17.9246C242.297 18.0642 242.397 18.2614 242.415 18.474C242.433 18.6866 242.367 18.8978 242.232 19.0625L241.286 19.2228C239.94 19.4472 239.299 19.8479 239.299 21.5788C239.299 28.2941 239.299 31.82 239.555 36.0031C239.555 37.5096 239.747 38.2789 241.03 38.4552L242.071 38.5834C242.328 38.8399 242.328 39.5931 242.071 39.7213C240.565 39.7213 239.154 39.6252 237.568 39.6252C235.981 39.6252 234.362 39.6252 232.76 39.7213C232.672 39.6578 232.599 39.576 232.545 39.4816C232.492 39.3873 232.46 39.2825 232.451 39.1744C232.441 39.0664 232.456 38.9577 232.492 38.8557C232.529 38.7537 232.588 38.6608 232.663 38.5834L233.641 38.4552C235.148 38.2469 235.148 37.8622 235.148 35.8749V27.3806V23.5661C232.728 28.7909 230.115 34.2401 227.968 39.7534C227.779 39.8989 227.548 39.9778 227.31 39.9778C227.016 39.9864 226.723 39.9202 226.461 39.7854C225.195 35.7466 221.172 27.653 219.345 23.4059C219.217 25.5214 219.185 26.9638 219.153 28.6627C219.153 30.7783 219.153 34.0478 219.153 36.0031C219.153 37.6058 219.345 38.0866 220.659 38.2949L221.925 38.4873C222.051 38.6501 222.12 38.8503 222.12 39.0562C222.12 39.2622 222.051 39.4623 221.925 39.6252C220.723 39.6252 219.313 39.529 218.079 39.529C216.845 39.529 215.787 39.529 214.489 39.6252C214.056 39.497 214.056 38.6475 214.345 38.4873L214.938 38.3911C216.54 38.0866 216.797 37.8943 216.989 35.8749C217.165 34.2722 217.262 31.4354 217.454 28.3261C217.582 26.1465 217.646 23.518 217.646 21.739C217.646 19.9601 216.925 19.3831 215.627 19.1587L214.457 19.0305Z" fill="white"/>
<path d="M253.435 32.2367C252.649 32.2367 252.553 32.2367 252.361 32.8778L251.095 36.6762C250.949 37.0497 250.867 37.4453 250.854 37.8462C250.854 38.0385 251.287 38.2308 252.201 38.4071L253.178 38.5674C253.371 38.7917 253.435 39.545 253.178 39.7053C252.04 39.7053 250.854 39.7053 249.492 39.6091C248.37 39.6091 247.633 39.7053 246.126 39.7053C245.774 39.513 245.806 38.8238 246.03 38.5674L246.912 38.4712C247.366 38.4355 247.799 38.2634 248.153 37.9774C248.508 37.6914 248.768 37.3049 248.899 36.8685C249.46 35.5543 250.069 33.9997 250.951 31.6437L253.932 23.6302C254.58 22.3307 254.987 20.9242 255.134 19.4792C256.24 19.0985 257.221 18.4223 257.97 17.5239C258.403 17.5239 258.595 17.7002 258.724 18.181C258.98 19.1266 259.381 20.3286 260.198 22.6526L264.638 35.4742C265.311 37.4294 265.615 38.1827 266.817 38.3911L268.051 38.5834C268.26 38.7437 268.324 39.529 268.051 39.7213C266.449 39.7213 264.734 39.6252 263.035 39.6252C261.336 39.6252 260.134 39.6251 258.627 39.7213C258.541 39.6539 258.471 39.5676 258.423 39.469C258.375 39.3704 258.349 39.2621 258.349 39.1524C258.349 39.0426 258.375 38.9343 258.423 38.8357C258.471 38.7371 258.541 38.6508 258.627 38.5834L259.669 38.4231C260.422 38.2789 260.551 38.0545 260.551 37.8622C260.407 37.103 260.198 36.3577 259.926 35.6344L259.044 32.8297C258.884 32.3168 258.627 32.2527 257.441 32.2527L253.435 32.2367ZM257.153 30.5058C257.906 30.5058 258.067 30.4096 257.81 29.5602L256.961 26.9157C256.512 25.5054 255.919 23.7103 255.63 23.0532C255.358 23.8065 254.717 25.5695 254.22 27.076L253.403 29.5281C253.114 30.4096 253.274 30.5058 254.092 30.5058H257.153Z" fill="white"/>
<path d="M274.591 23.2777C274.591 20.0723 274.591 19.6556 273.148 19.4633L272.267 19.3191C272.185 19.2484 272.12 19.161 272.075 19.0628C272.03 18.9647 272.007 18.858 272.007 18.7501C272.007 18.6422 272.03 18.5356 272.075 18.4374C272.12 18.3393 272.185 18.2519 272.267 18.1812C274.719 18.0209 277.267 17.8927 280.36 17.8927C282.56 17.7608 284.76 18.1622 286.771 19.0626C287.648 19.5197 288.38 20.2113 288.887 21.0603C289.393 21.9093 289.654 22.8822 289.64 23.8707C289.631 24.9414 289.297 25.984 288.682 26.8601C288.066 27.7361 287.199 28.404 286.194 28.775C285.858 28.9353 285.858 29.1276 286.018 29.4962C288.182 33.8716 289.512 36.3077 291.082 37.6539C291.7 38.1724 292.46 38.491 293.262 38.5675C293.391 38.6635 293.477 38.8053 293.504 38.9634C293.531 39.1215 293.496 39.2839 293.406 39.4169C292.568 39.6527 291.696 39.7502 290.826 39.7054C289.553 39.8036 288.278 39.5323 287.155 38.9239C286.032 38.3155 285.109 37.396 284.495 36.2756C283.532 34.6528 282.68 32.966 281.947 31.2271C281.843 30.8603 281.612 30.5427 281.294 30.3312C280.977 30.1197 280.595 30.0282 280.216 30.0732C279.078 30.0732 279.014 30.0732 279.014 30.7944V34.8172C279.014 37.8142 279.206 38.0226 280.617 38.3111L281.498 38.4713C281.615 38.6382 281.677 38.8368 281.677 39.0403C281.677 39.2438 281.615 39.4424 281.498 39.6092C279.767 39.6092 278.293 39.5131 276.69 39.5131C275.087 39.5131 273.629 39.5131 271.882 39.6092C271.751 39.4488 271.679 39.2477 271.679 39.0403C271.679 38.8328 271.751 38.6318 271.882 38.4713L272.764 38.3111C274.222 38.0386 274.366 37.8142 274.366 34.8172L274.591 23.2777ZM279.062 27.4287C279.062 28.5827 279.158 28.6788 281.082 28.6788C281.537 28.7122 281.994 28.648 282.422 28.4905C282.851 28.3329 283.241 28.0857 283.566 27.7653C283.985 27.2846 284.304 26.7252 284.505 26.1199C284.706 25.5145 284.784 24.8753 284.736 24.2394C284.736 21.3064 283.005 19.4313 280.457 19.4313C279.126 19.4313 279.062 19.5435 279.062 21.034V27.4287Z" fill="white"/>
<path d="M304.673 26.675C304.673 27.7488 304.866 27.877 305.266 27.877C305.939 27.877 307.318 26.6109 307.879 25.9859C309.529 24.2425 311.086 22.4129 312.543 20.5046C312.742 20.2554 312.884 19.9654 312.959 19.6552C312.959 19.527 312.831 19.2866 312.414 19.2225L311.26 19.0301C311.177 18.9551 311.113 18.8613 311.074 18.7567C311.034 18.6521 311.02 18.5395 311.033 18.4283C311.045 18.3171 311.084 18.2105 311.146 18.1173C311.208 18.0241 311.291 17.947 311.389 17.8922C312.991 17.8922 314.273 17.9884 315.443 17.9884C316.613 17.9884 318.088 17.9884 319.386 17.8922C319.787 18.0205 319.819 18.7737 319.562 19.0301C318.599 19.0941 317.649 19.2937 316.742 19.6231C314.851 20.6409 313.21 22.0639 311.933 23.7902L310.427 25.489C310.212 25.6899 310.066 25.9535 310.01 26.2423C310.01 26.4026 310.203 26.8032 311.18 28.2617C312.783 30.7138 314.738 33.8551 316.966 36.788C317.213 37.2247 317.56 37.5973 317.977 37.8756C318.395 38.154 318.872 38.3304 319.37 38.3907L320.412 38.551C320.62 38.8395 320.62 39.5287 320.316 39.6889C318.713 39.6889 317.11 39.5928 315.62 39.5928C314.129 39.5928 312.318 39.5928 310.491 39.6889C310.074 39.5607 310.074 38.7434 310.491 38.551L311.308 38.3587C311.677 38.2465 311.869 38.1503 311.869 38.0221C311.842 37.7846 311.754 37.5581 311.613 37.365L309.706 34.4641L307.895 31.7556C306.725 29.9606 306.18 29.1752 305.459 29.1752C304.737 29.1752 304.673 29.64 304.673 31.403V34.8328C304.673 37.8619 304.866 38.1503 306.276 38.3587L307.189 38.4869C307.316 38.6498 307.384 38.8499 307.384 39.0559C307.384 39.2618 307.316 39.462 307.189 39.6248C305.459 39.6248 303.824 39.5287 302.253 39.5287C300.682 39.5287 299.048 39.5287 297.365 39.6248C297.241 39.4609 297.175 39.2612 297.175 39.0559C297.175 38.8506 297.241 38.6509 297.365 38.4869L298.278 38.3587C299.753 38.1503 299.881 37.8619 299.881 34.8328V22.6202C299.881 19.5911 299.689 19.2866 298.278 19.0943L297.365 18.966C297.278 18.8986 297.208 18.8123 297.16 18.7137C297.112 18.6151 297.087 18.5068 297.087 18.3971C297.087 18.2873 297.112 18.1791 297.16 18.0805C297.208 17.9819 297.278 17.8956 297.365 17.8281C298.968 17.8281 300.57 17.9243 302.253 17.9243C303.936 17.9243 305.459 17.9243 307.189 17.8281C307.33 17.9842 307.408 18.1869 307.408 18.3971C307.408 18.6073 307.33 18.81 307.189 18.966L306.276 19.0943C304.801 19.2866 304.673 19.5911 304.673 22.6202V26.675Z" fill="white"/>
<path d="M37.9998 8.43654C31.9563 8.44605 26.0512 10.247 21.0311 13.6119C16.0109 16.9767 12.101 21.7544 9.79557 27.3409C7.49014 32.9274 6.89269 39.072 8.07872 44.998C9.26474 50.924 12.181 56.3653 16.4589 60.6343C20.7368 64.9032 26.1842 67.808 32.1127 68.9816C38.0412 70.1552 44.1845 69.5449 49.7662 67.2277C55.3479 64.9106 60.1173 60.9907 63.4716 55.9635C66.8259 50.9363 68.6145 45.0275 68.6113 38.984C68.6071 34.9682 67.812 30.9926 66.2714 27.2842C64.7307 23.5757 62.4747 20.207 59.6321 17.3704C56.7896 14.5338 53.4162 12.2849 49.7045 10.752C45.9928 9.21912 42.0155 8.43233 37.9998 8.43654ZM37.9998 68.3454C32.1919 68.3486 26.5136 66.6293 21.6831 63.4049C16.8525 60.1806 13.0867 55.5961 10.8619 50.2312C8.63714 44.8664 8.0534 38.9623 9.18451 33.2657C10.3156 27.5691 13.1108 22.3359 17.2164 18.228C21.322 14.1201 26.5537 11.3221 32.2497 10.1879C37.9457 9.05367 43.8502 9.63419 49.2162 11.856C54.5822 14.0778 59.1688 17.8412 62.3958 22.67C65.6228 27.4988 67.3452 33.1762 67.3452 38.984C67.341 46.7671 64.2484 54.2304 58.7464 59.7353C53.2444 65.2403 45.7828 68.3369 37.9998 68.3454Z" fill="#E0C18D"/>
<path d="M319.114 62.8159H82.251V64.675H319.114V62.8159Z" fill="white"/>
<path d="M319.114 12.6357H82.251V14.4949H319.114V12.6357Z" fill="white"/>
<path d="M50.8693 40.3625C51.8471 41.0328 52.6674 41.9078 53.2733 42.9268C53.9155 44.0294 54.2374 45.2894 54.2029 46.5649C54.2483 48.046 53.8821 49.5106 53.1451 50.7961C52.4114 51.9708 51.3616 52.915 50.116 53.5206C48.6012 54.2692 46.9791 54.7775 45.3079 55.0272C43.1858 55.3427 41.0425 55.4927 38.8971 55.4759H21.7803V53.6649L23.5913 53.4565C24.138 53.4151 24.6769 53.302 25.194 53.12C25.6809 52.9655 26.0961 52.6413 26.364 52.2064C26.5948 51.7503 26.7052 51.2427 26.6845 50.732V27.5249C26.6922 27.0477 26.605 26.5738 26.4281 26.1305C26.1433 25.6742 25.7061 25.3335 25.194 25.1689C24.6755 24.9522 24.1393 24.7806 23.5913 24.656L21.9085 24.3515V22.6206H39.7626C44.2662 22.6206 47.5036 23.2457 49.507 24.4797C50.4573 25.0349 51.2385 25.8385 51.7665 26.8043C52.2945 27.77 52.5495 28.8613 52.504 29.961C52.5245 30.9791 52.2933 31.9866 51.8309 32.8939C51.357 33.7618 50.6943 34.5121 49.8916 35.0896C49.058 35.6988 48.1472 36.1946 47.1831 36.5641C46.084 36.997 44.9535 37.3453 43.8014 37.6058V38.0546C45.0756 38.1927 46.3323 38.4613 47.5517 38.8559C48.7249 39.1943 49.8425 39.7018 50.8693 40.3625ZM43.3847 30.4578C43.422 29.6731 43.2992 28.889 43.0237 28.1533C42.7481 27.4176 42.3256 26.7457 41.782 26.1786C40.5112 25.052 38.8454 24.4756 37.1502 24.5759C36.8617 24.5759 36.477 24.5759 36.0123 24.5759H34.7942V36.7724H35.9962C38.0026 36.9432 39.9953 36.3154 41.5416 35.0255C42.1348 34.4232 42.603 33.7096 42.9193 32.9257C43.2356 32.1418 43.3938 31.3031 43.3847 30.4578ZM44.9874 46.2604C45.0516 45.2878 44.9044 44.3128 44.5557 43.4026C44.2071 42.4923 43.6655 41.6684 42.968 40.9875C41.3084 39.6693 39.2167 39.0178 37.1021 39.1605C36.8136 39.1605 36.4129 39.1605 35.9321 39.1605H34.8583V51.3089C34.955 51.6321 35.1213 51.9302 35.3456 52.1822C35.5698 52.4342 35.8467 52.6339 36.1565 52.7674C36.9728 53.1879 37.8832 53.3921 38.8009 53.3604C39.6407 53.3849 40.476 53.2288 41.2503 52.9025C42.0245 52.5762 42.7196 52.0874 43.2885 51.4692C44.5115 50.0188 45.1311 48.1543 45.0194 46.2604H44.9874Z" fill="white"/>
</svg>
